<svg width="15" height="12" viewBox="0 0 15 12" fill="none" xmlns="http://www.w3.org/2000/svg">
<path d="M4.125 11.6364H-3.57628e-07V0H4.15909C5.32955 0 6.33712 0.232955 7.18182 0.698864C8.02652 1.16098 8.67614 1.82576 9.13068 2.69318C9.58902 3.56061 9.81818 4.59849 9.81818 5.80682C9.81818 7.01894 9.58902 8.06061 9.13068 8.93182C8.67614 9.80303 8.02273 10.4716 7.17045 10.9375C6.32197 11.4034 5.30682 11.6364 4.125 11.6364ZM2.46023 9.52841H4.02273C4.75 9.52841 5.36174 9.39962 5.85795 9.14205C6.35795 8.88068 6.73295 8.47727 6.98295 7.93182C7.23674 7.38258 7.36364 6.67424 7.36364 5.80682C7.36364 4.94697 7.23674 4.24432 6.98295 3.69886C6.73295 3.15341 6.35985 2.75189 5.86364 2.49432C5.36742 2.23674 4.75568 2.10795 4.02841 2.10795H2.46023V9.52841ZM14.1009 0V11.6364H11.6406V0H14.1009Z" fill="url(#paint0_linear_2_2)"/>
<defs>
<linearGradient id="paint0_linear_2_2" x1="0.296328" y1="15.6364" x2="14.0271" y2="15.6364" gradientUnits="userSpaceOnUse">
<stop stop-color="#22D3EE"/>
<stop offset="0.52" stop-color="#6A38FF"/>
<stop offset="1" stop-color="#B938FF"/>
</linearGradient>
</defs>
</svg>
