<svg width="29" height="24" viewBox="0 0 29 24" fill="none" xmlns="http://www.w3.org/2000/svg">
<path d="M8.25 23.2727H-7.15256e-07V0H8.31818C10.6591 0 12.6742 0.465909 14.3636 1.39773C16.053 2.32197 17.3523 3.65151 18.2614 5.38636C19.178 7.12121 19.6364 9.19697 19.6364 11.6136C19.6364 14.0379 19.178 16.1212 18.2614 17.8636C17.3523 19.6061 16.0455 20.9432 14.3409 21.875C12.6439 22.8068 10.6136 23.2727 8.25 23.2727ZM4.92045 19.0568H8.04545C9.5 19.0568 10.7235 18.7992 11.7159 18.2841C12.7159 17.7614 13.4659 16.9545 13.9659 15.8636C14.4735 14.7652 14.7273 13.3485 14.7273 11.6136C14.7273 9.89394 14.4735 8.48864 13.9659 7.39773C13.4659 6.30682 12.7197 5.50379 11.7273 4.98864C10.7348 4.47349 9.51136 4.21591 8.05682 4.21591H4.92045V19.0568ZM28.2017 0V23.2727H23.2812V0H28.2017Z" fill="url(#paint0_linear_2_2)"/>
<defs>
<linearGradient id="paint0_linear_2_2" x1="0.515733" y1="31.2727" x2="27.1696" y2="31.2727" gradientUnits="userSpaceOnUse">
<stop stop-color="#22D3EE"/>
<stop offset="0.52" stop-color="#6A38FF"/>
<stop offset="1" stop-color="#B938FF"/>
</linearGradient>
</defs>
</svg>
